{
  "accessors": [
    {
      "bufferView": 2,
      "componentType": 5126,
      "count": 8277,
      "max": [
        0.09158968925476074,
        0.021068518981337547,
        0.0472157821059227
      ],
      "min": [
        -0.13696742057800293,
        -0.021054858341813087,
        -0.03395219147205353
      ],
      "type": "VEC3"
    },
    {
      "bufferView": 2,
      "byteOffset": 99324,
      "componentType": 5126,
      "count": 8277,
      "type": "VEC3"
    },
    {
      "bufferView": 3,
      "componentType": 5126,
      "count": 8277,
      "type": "VEC4"
    },
    {
      "bufferView": 1,
      "componentType": 5126,
      "count": 8277,
      "type": "VEC2"
    },
    {
      "bufferView": 0,
      "componentType": 5125,
      "count": 19236,
      "type": "SCALAR"
    },
    {
      "bufferView": 2,
      "byteOffset": 198648,
      "componentType": 5126,
      "count": 7917,
      "max": [
        0.11040502786636353,
        0.019247770309448242,
        0.05046239122748375
      ],
      "min": [
        -0.14496693015098572,
        -0.019234122708439827,
        -0.11292219907045364
      ],
      "type": "VEC3"
    },
    {
      "bufferView": 2,
      "byteOffset": 293652,
      "componentType": 5126,
      "count": 7917,
      "type": "VEC3"
    },
    {
      "bufferView": 3,
      "byteOffset": 132432,
      "componentType": 5126,
      "count": 7917,
      "type": "VEC4"
    },
    {
      "bufferView": 1,
      "byteOffset": 66216,
      "componentType": 5126,
      "count": 7917,
      "type": "VEC2"
    },
    {
      "bufferView": 0,
      "byteOffset": 76944,
      "componentType": 5125,
      "count": 19065,
      "type": "SCALAR"
    }
  ],
  "asset": {
    "generator": "fab-model-conversion",
    "version": "2.0"
  },
  "bufferViews": [
    {
      "buffer": 0,
      "byteLength": 153204,
      "target": 34963
    },
    {
      "buffer": 0,
      "byteLength": 129552,
      "byteOffset": 153204,
      "byteStride": 8,
      "target": 34962
    },
    {
      "buffer": 0,
      "byteLength": 388656,
      "byteOffset": 282756,
      "byteStride": 12,
      "target": 34962
    },
    {
      "buffer": 0,
      "byteLength": 259104,
      "byteOffset": 671412,
      "byteStride": 16,
      "target": 34962
    }
  ],
  "buffers": [
    {
      "byteLength": 930516,
      "uri": "scene.bin"
    }
  ],
  "extensionsUsed": [
    "KHR_materials_emissive_strength"
  ],
  "images": [
    {
      "uri": "textures/Black.001_BaseColor.jpeg"
    },
    {
      "uri": "textures/Black.001_ORM.jpeg"
    },
    {
      "uri": "textures/Black.001_Normal.png"
    },
    {
      "uri": "textures/Black.001_Emission.jpeg"
    },
    {
      "uri": "textures/White_BaseColor.jpeg"
    },
    {
      "uri": "textures/White_ORM.jpeg"
    },
    {
      "uri": "textures/White_Normal.png"
    },
    {
      "uri": "textures/White_Emission.jpeg"
    }
  ],
  "materials": [
    {
      "doubleSided": true,
      "emissiveFactor": [
        1.0,
        1.0,
        1.0
      ],
      "emissiveTexture": {
        "index": 3
      },
      "extensions": {
        "KHR_materials_emissive_strength": {
          "emissiveStrength": 30.3390007
        }
      },
      "name": "Black.001",
      "normalTexture": {
        "index": 2
      },
      "occlusionTexture": {
        "index": 1
      },
      "pbrMetallicRoughness": {
        "baseColorTexture": {
          "index": 0
        },
        "metallicRoughnessTexture": {
          "index": 1
        }
      }
    },
    {
      "doubleSided": true,
      "emissiveFactor": [
        1.0,
        1.0,
        1.0
      ],
      "emissiveTexture": {
        "index": 7
      },
      "extensions": {
        "KHR_materials_emissive_strength": {
          "emissiveStrength": 30.6779995
        }
      },
      "name": "White",
      "normalTexture": {
        "index": 6
      },
      "occlusionTexture": {
        "index": 5
      },
      "pbrMetallicRoughness": {
        "baseColorTexture": {
          "index": 4
        },
        "metallicRoughnessTexture": {
          "index": 5
        }
      }
    }
  ],
  "meshes": [
    {
      "name": "SciFiPistol_White_0",
      "primitives": [
        {
          "attributes": {
            "NORMAL": 1,
            "POSITION": 0,
            "TANGENT": 2,
            "TEXCOORD_0": 3
          },
          "indices": 4,
          "material": 1,
          "mode": 4
        }
      ]
    },
    {
      "name": "SciFiPistol_Black.001_0",
      "primitives": [
        {
          "attributes": {
            "NORMAL": 6,
            "POSITION": 5,
            "TANGENT": 7,
            "TEXCOORD_0": 8
          },
          "indices": 9,
          "material": 0,
          "mode": 4
        }
      ]
    }
  ],
  "nodes": [
    {
      "children": [
        1
      ],
      "matrix": [
        1.0,
        0.0,
        0.0,
        0.0,
        0.0,
        2.220446049250313e-16,
        -1.0,
        0.0,
        0.0,
        1.0,
        2.220446049250313e-16,
        0.0,
        0.0,
        0.0,
        0.0,
        1.0
      ],
      "name": "FAB converted model"
    },
    {
      "children": [
        2
      ],
      "matrix": [
        0.009999999776482582,
        0.0,
        0.0,
        0.0,
        0.0,
        0.0,
        0.009999999776482582,
        0.0,
        0.0,
        -0.009999999776482582,
        0.0,
        0.0,
        0.0,
        0.0,
        0.0,
        1.0
      ],
      "name": "SciFiPistol.fbx"
    },
    {
      "children": [
        3
      ],
      "name": "RootNode"
    },
    {
      "children": [
        4,
        5
      ],
      "matrix": [
        100.0,
        0.0,
        0.0,
        0.0,
        0.0,
        -1.629206793918314e-05,
        -99.99999999999868,
        0.0,
        0.0,
        99.99999999999868,
        -1.629206793918314e-05,
        0.0,
        0.0,
        0.0,
        0.0,
        1.0
      ],
      "name": "SciFiPistol"
    },
    {
      "mesh": 0,
      "name": "SciFiPistol_White_0"
    },
    {
      "mesh": 1,
      "name": "SciFiPistol_Black.001_0"
    }
  ],
  "samplers": [
    {
      "magFilter": 9729,
      "minFilter": 9987,
      "wrapS": 10497,
      "wrapT": 10497
    }
  ],
  "scene": 0,
  "scenes": [
    {
      "name": "FAB converted",
      "nodes": [
        0
      ]
    }
  ],
  "textures": [
    {
      "sampler": 0,
      "source": 0
    },
    {
      "sampler": 0,
      "source": 1
    },
    {
      "sampler": 0,
      "source": 2
    },
    {
      "sampler": 0,
      "source": 3
    },
    {
      "sampler": 0,
      "source": 4
    },
    {
      "sampler": 0,
      "source": 5
    },
    {
      "sampler": 0,
      "source": 6
    },
    {
      "sampler": 0,
      "source": 7
    }
  ]
}
